. 
 
http://www.torrenting.com          :     Once & For all ;)


               www . Torrenting . Com 

(((((((((((((= Enjoy No RAR releases =))))))))))))))))))))


...................................NFO:....................................

.[IMG]http://i.imgur.com/tKGEq.jpg[/IMG]
 
http://www.imdb.com/title/tt1633356/

A weekend at a lake house in the Louisiana Gulf turns into a nightmare for seven vacationers as they are subjected to shark attacks. 

General
Complete name                            : C:UsersrootDesktopShark.Night.2011.DVDRip.XviD.AC3-GBRShark.Night.2011.DVDRip.XviD.AC3-GBR.avi
Format                                   : AVI
Format/Info                              : Audio Video Interleave
File size                                : 1.05 GiB
Duration                                 : 1h 30mn
Overall bit rate                         : 1 656 Kbps
Writing application                      : VirtualDubMod 1.5.10.2 (build 2540/release)
Writing library                          : VirtualDubMod build 2540/release

Video
ID                                       : 0
Format                                   : MPEG-4 Visual
Format profile                           : Advanced Simple@L5
Format settings, BVOP                    : 1
Format settings, QPel                    : No
Format settings, GMC                     : No warppoints
Format settings, Matrix                  : Default (H.263)
Muxing mode                              : Packed bitstream
Codec ID                                 : XVID
Codec ID/Hint                            : XviD
Duration                                 : 1h 30mn
Bit rate                                 : 1 199 Kbps
Width                                    : 720 pixels
Height                                   : 384 pixels
Display aspect ratio                     : 1.875
Frame rate                               : 23.976 fps
Color space                              : YUV
Chroma subsampling                       : 4:2:0
Bit depth                                : 8 bits
Scan type                                : Progressive
Compression mode                         : Lossy
Bits/(Pixel*Frame)                       : 0.181
Stream size                              : 777 MiB (72%)
Writing library                          : XviD 1.2.1 (UTC 2008-12-04)

Audio
ID                                       : 1
Format                                   : AC-3
Format/Info                              : Audio Coding 3
Mode extension                           : CM (complete main)
Codec ID                                 : 2000
Duration                                 : 1h 30mn
Bit rate mode                            : Constant
Bit rate                                 : 448 Kbps
Channel(s)                               : 6 channels
Channel positions                        : Front: L C R, Side: L R, LFE
Sampling rate                            : 48.0 KHz
Bit depth                                : 16 bits
Compression mode                         : Lossy
Stream size                              : 290 MiB (27%)
Alignment                                : Split accross interleaves
Interleave, duration                     : 42 ms (1.00 video frame)
Interleave, preload duration             : 500 ms

Source Shark Night / 2011 / WS / NTSC / DVD9 / ufcfan1-thanks


[IMG]http://i.imgur.com/4gTxh.png[/IMG]
[IMG]http://i.imgur.com/6vROL.png[/IMG]
[IMG]http://i.imgur.com/OHYR3.png[/IMG]